<?xml version="1.0" encoding="utf-8"?>
<!-- Generator: Adobe Illustrator 23.0.6, SVG Export Plug-In . SVG Version: 6.00 Build 0)  -->
<svg version="1.1" id="Layer_1" xmlns="http://www.w3.org/2000/svg" xmlns:xlink="http://www.w3.org/1999/xlink" x="0px" y="0px"
	 viewBox="0 0 895.4 498.5" style="enable-background:new 0 0 895.4 498.5;" xml:space="preserve">
<style type="text/css">
	.st0{fill:#ADAEB1;}
	.st1{fill:#FCD77C;}
	.st2{fill:#FDE8B9;}
</style>
<title>sesame_side</title>
<g>
	<g>
		<g id="Layer_1-2">
			<g>
				<path class="st0" d="M610.3,477.1c2-9.5,12.7-13.1,18.4-10.2s8.2,15.8,1.3,22.6c-4.9,4.7-16.8,10.1-17.5,8.5
					C609.8,491.3,609,484.1,610.3,477.1z"/>
			</g>
			<path class="st1" d="M613.2,477.3c2-9.5,12.7-13.1,18.4-10.2s8.2,15.8,1.3,22.6c-4.9,4.7-16.8,10.1-17.5,8.5
				C612.7,491.6,611.9,484.4,613.2,477.3z"/>
			<path class="st2" d="M625,478.8c0.1-3.9,3.6-6.5,5.8-5.9s4,5.3,1.9,8.7c-1.4,2.4-5.3,5.7-5.6,5.2
				C625.7,484.3,625,481.6,625,478.8z"/>
			<g>
				<path class="st0" d="M358.6,426.7c-3.7-9.6,3.9-18.9,10.6-19.5c6.7-0.6,16.3,9.4,14,19.4c-1.7,7-9.3,18.5-10.8,17.5
					C370.2,442.6,362.3,436.4,358.6,426.7z"/>
			</g>
			<path class="st1" d="M361.3,425.3c-3.7-9.6,3.9-18.9,10.6-19.5c6.7-0.6,16.3,9.4,14,19.4c-1.7,7-9.3,18.5-10.8,17.5
				C372.9,441.2,365,435,361.3,425.3z"/>
			<path class="st2" d="M372.7,419.9c-2.2-3.5-0.4-7.8,1.8-8.6s6.5,2.5,6.7,6.6c0.1,2.9-1.5,8.1-2.1,7.8
				C376.5,424.4,374.3,422.3,372.7,419.9z"/>
			<g>
				<path class="st0" d="M607.3,344c-1.6-10.9,8.4-19,15.7-18s15,13.7,10.2,23.6c-3.4,7-14,17.4-15.4,15.9
					C615.8,363.5,608.9,355.1,607.3,344z"/>
			</g>
			<path class="st1" d="M610.5,343.2c-1.6-10.9,8.5-19,15.7-18.1s15,13.7,10.2,23.6c-3.4,7-14,17.4-15.4,15.9
				C619,362.6,612.1,354.2,610.5,343.2z"/>
			<g>
				<path class="st0" d="M161.4,47c-8.2-9.1-3.9-22.8,3.4-26.4s22.4,3.4,24.1,15.6c1.2,8.6-2.3,24.8-4.4,24.3
					C181.3,59.7,169.8,56.2,161.4,47z"/>
			</g>
			<path class="st1" d="M163.8,44.2c-8.2-9.1-3.9-22.9,3.4-26.5s22.4,3.4,24.1,15.6c1.2,8.6-2.3,24.8-4.4,24.3
				C183.8,56.9,172.2,53.4,163.8,44.2z"/>
			<path class="st2" d="M174.2,33.2c-3.9-3-3.9-8.6-1.7-10.4s8.4-0.1,10.3,4.5c1.4,3.2,1.9,9.7,1.1,9.6
				C180.4,36.6,177,35.3,174.2,33.2z"/>
			<g>
				<path class="st0" d="M405,107.6c-2.8,9.6-14.1,12.5-19.7,9s-7.2-16.9,0.5-23.3c5.4-4.5,18.1-9,18.7-7.3
					C405.3,88.4,407.8,97.9,405,107.6z"/>
			</g>
			<path class="st1" d="M402,107.1c-2.8,9.6-14.1,12.5-19.7,9s-7.2-16.9,0.5-23.3c5.4-4.5,18.1-9,18.6-7.3
				C402.3,87.9,404.8,97.4,402,107.1z"/>
			<path class="st2" d="M390,104.7c-0.4,4-4.2,6.4-6.5,5.6s-3.6-5.8-1.3-9.1c1.6-2.3,5.9-5.4,6.2-4.9
				C389.7,99,390.2,101.8,390,104.7z"/>
			<g>
				<path class="st0" d="M5.5,386.3C-4,376.7,0.1,361.3,8,357s24.9,2.7,27.3,16.1c1.7,9.4-1.4,27.5-3.8,27
					C28.1,399.5,15.2,396.1,5.5,386.3z"/>
			</g>
			<path class="st1" d="M8.1,383.1c-9.5-9.7-5.4-25.1,2.5-29.4s24.9,2.7,27.3,16.1c1.7,9.4-1.4,27.5-3.8,27
				C30.7,396.3,17.7,392.9,8.1,383.1z"/>
			<path class="st2" d="M19,370.5c-4.5-3.1-4.7-9.3-2.3-11.4s9.3-0.5,11.6,4.5c1.6,3.5,2.5,10.6,1.6,10.6
				C26,373.9,22.2,372.7,19,370.5z"/>
			<g>
				<path class="st0" d="M321.4,30.1c11,4.8,12.6,18.8,7.5,24.9s-21.3,5.9-27.6-4.3c-4.5-7.1-7.8-22.9-5.7-23.4
					C298.6,26.7,310.3,25.2,321.4,30.1z"/>
			</g>
			<path class="st1" d="M320.3,33.5c11,4.8,12.6,18.8,7.5,24.9s-21.3,5.9-27.6-4.3c-4.5-7.1-7.8-22.9-5.7-23.4
				C297.5,30.1,309.2,28.6,320.3,33.5z"/>
			<path class="st2" d="M315.5,47.5c4.7,1.1,6.9,6.1,5.6,8.6s-7.5,3.4-11,0.1c-2.5-2.3-5.5-7.9-4.8-8.2
				C308.6,46.9,312.1,46.7,315.5,47.5z"/>
			<g>
				<path class="st0" d="M156.6,360.5c6.2,7.7,2.1,18.5-3.9,21.1s-17.9-3.8-18.7-13.6c-0.6-6.9,3-19.8,4.6-19.3
					C145.6,350.8,151.8,354.9,156.6,360.5z"/>
			</g>
			<path class="st1" d="M154.5,362.6c6.2,7.7,2.1,18.6-3.9,21.1s-17.9-3.8-18.7-13.6c-0.6-6.9,3-19.8,4.7-19.3
				C139,351.4,148.2,354.8,154.5,362.6z"/>
			<path class="st2" d="M145.7,371c3,2.6,2.8,7.1,0.9,8.5s-6.8-0.3-8.1-4.1c-0.9-2.7-1.1-7.9-0.4-7.8
				C140.8,368,143.5,369.2,145.7,371z"/>
			<g>
				<path class="st0" d="M742,485c-10.1-6.6-9.5-20.7-3.5-25.9s22.1-2.4,26.8,8.7c3.3,7.8,4.1,24.1,1.9,24.1
					C764.2,492.1,752.3,491.7,742,485z"/>
			</g>
			<path class="st1" d="M743.7,481.8c-10.1-6.6-9.5-20.7-3.5-25.9s22.1-2.4,26.8,8.7c3.3,7.8,4.1,24,1.9,24.1
				C765.8,488.8,753.9,488.4,743.7,481.8z"/>
			<path class="st2" d="M750.7,468.7c-4.5-1.9-5.9-7.1-4.2-9.5s8-2.2,10.9,1.7c2.1,2.7,4.2,8.7,3.4,8.9
				C757.4,470.4,753.9,470,750.7,468.7z"/>
			<g>
				<path class="st0" d="M451.3,25.6c-4-12.4,6.2-23.7,14.8-24s20.1,13,16.4,25.5c-2.6,8.7-13,22.8-14.8,21.5
					C464.9,46.6,455.3,38.1,451.3,25.6z"/>
			</g>
			<path class="st1" d="M454.9,24c-4-12.4,6.2-23.7,14.8-24s20.1,13.1,16.4,25.5c-2.6,8.8-13,22.8-14.8,21.4
				C468.5,44.9,458.9,36.5,454.9,24z"/>
			<path class="st2" d="M469.6,17.9c-2.5-4.6,0-9.9,2.9-10.8s8.1,3.6,8,8.9c-0.1,3.7-2.4,10.1-3.2,9.7
				C474.1,23.9,471.5,21.1,469.6,17.9z"/>
			<g>
				<path class="st0" d="M860.8,458c11.8-1.4,20.3,9.7,19,17.5c-1.2,7.8-15.3,15.8-25.9,10.3c-7.4-3.9-18.3-15.7-16.7-17.1
					C839.5,466.5,848.8,459.4,860.8,458z"/>
			</g>
			<path class="st1" d="M861.6,461.5c11.8-1.4,20.3,9.7,19,17.5s-15.3,15.8-25.9,10.3c-7.4-3.9-18.3-15.7-16.7-17.1
				C840.3,470.1,849.6,462.9,861.6,461.5z"/>
			<path class="st2" d="M864.5,475.9c4.6-1.4,9,1.7,9.2,4.5s-4.7,6.7-9.4,5.6c-3.3-0.7-8.7-4-8.2-4.6
				C858.3,478.9,861.2,476.9,864.5,475.9z"/>
			<g>
				<path class="st0" d="M90.6,82.8c-4.6,8-15.5,8.1-19.7,3.7s-2.8-16.9,5.6-20.9c5.9-2.8,18.3-4.1,18.5-2.5
					C95.3,70,93.8,76.8,90.6,82.8z"/>
			</g>
			<path class="st1" d="M88,81.7c-4.6,8-15.5,8.1-19.8,3.8s-2.8-16.9,5.6-20.9c5.9-2.8,18.3-4.1,18.4-2.5
				C92.7,68.9,91.2,75.7,88,81.7z"/>
			<path class="st2" d="M77.7,76.9c-1.2,3.5-5.2,4.8-7.1,3.6s-2-6,0.8-8.5c2-1.7,6.5-3.6,6.7-3C78.7,71.6,78.5,74.3,77.7,76.9z"/>
			<g>
				<path class="st0" d="M90.5,291.1c8.2,7.7,5.2,20.6-1.2,24.4s-20.7-1.5-23.2-12.5c-1.7-7.8,0.3-22.8,2.3-22.5
					C71.3,280.9,82.1,283.3,90.5,291.1z"/>
			</g>
			<path class="st1" d="M88.4,293.9c8.2,7.7,5.2,20.6-1.2,24.5s-20.8-1.5-23.2-12.5c-1.7-7.8,0.3-22.8,2.3-22.5
				C69.3,283.6,80.1,286,88.4,293.9z"/>
			<path class="st2" d="M79.8,304.7c3.8,2.5,4.2,7.6,2.3,9.4s-7.7,0.7-9.8-3.4c-1.5-2.9-2.4-8.7-1.7-8.7
				C73.8,302.1,77,303,79.8,304.7z"/>
			<g>
				<path class="st0" d="M104.8,436.3c8.2,6.4,6.6,18.6,1,22.6s-19.2,0.4-22.4-9.6c-2.2-7-1.7-21.1,0.2-21
					C86.3,428.5,96.5,429.8,104.8,436.3z"/>
			</g>
			<path class="st1" d="M103.2,439c8.2,6.4,6.6,18.6,1,22.6S85,462,81.8,452c-2.2-7-1.7-21.1,0.2-21
				C84.7,431.2,94.9,432.5,103.2,439z"/>
			<path class="st2" d="M96.1,449.7c3.7,1.9,4.5,6.6,2.9,8.5s-7,1.3-9.3-2.3c-1.6-2.5-3-7.8-2.3-7.9
				C90.4,447.8,93.4,448.4,96.1,449.7z"/>
			<g>
				<path class="st0" d="M46.5,193c7.2,11.4-0.1,25.4-8.7,27.9s-23.5-7.9-23-21.4c0.4-9.5,7.2-26.3,9.4-25.4
					C27.4,175.4,39.3,181.4,46.5,193z"/>
			</g>
			<path class="st1" d="M43.4,195.5c7.2,11.4-0.1,25.4-8.6,27.9s-23.5-8-23-21.4c0.4-9.5,7.2-26.3,9.4-25.4
				C24.3,178,36.1,184,43.4,195.5z"/>
			<path class="st2" d="M30.1,205.4c3.7,4,2.6,10-0.2,11.6s-9.1-1.5-10.3-6.8c-0.9-3.7-0.2-10.8,0.7-10.6
				C24,200.6,27.4,202.6,30.1,205.4z"/>
			<g>
				<path class="st0" d="M217.2,449.8c11.1,4,13.6,17.6,9.1,23.9s-20.5,7.2-27.4-2.4c-4.9-6.7-9.2-22-7.2-22.6
					C194.6,447.9,206,445.7,217.2,449.8z"/>
			</g>
			<path class="st1" d="M216.4,453.2c11.1,4,13.6,17.6,9.1,24s-20.5,7.2-27.4-2.4c-4.9-6.7-9.2-22-7.2-22.6
				C193.8,451.4,205.1,449.1,216.4,453.2z"/>
			<path class="st2" d="M212.6,467.2c4.7,0.8,7.2,5.5,6.1,8.1s-7.1,3.9-10.8,0.8c-2.6-2.1-5.9-7.4-5.2-7.7
				C205.8,467.2,209.2,466.7,212.6,467.2z"/>
			<g>
				<path class="st0" d="M725.4,344.7c-11.1,1.4-19.1-9-18-16.3s14.2-15,24.2-9.9c7,3.6,17.3,14.6,15.9,15.9
					C745.3,336.4,736.6,343.2,725.4,344.7z"/>
			</g>
			<path class="st1" d="M724.6,341.4c-11,1.4-19.1-9-18-16.3c1.1-7.3,14.2-15,24.2-9.9c7,3.6,17.3,14.6,15.9,15.9
				C744.5,333.1,735.8,339.9,724.6,341.4z"/>
			<path class="st2" d="M721.7,327.9c-4.3,1.4-8.4-1.5-8.7-4.1s4.3-6.3,8.8-5.4c3.1,0.7,8.2,3.6,7.8,4.2
				C727.4,325.1,724.7,326.9,721.7,327.9z"/>
			<g>
				<path class="st0" d="M816.6,387.7c-12-3.4-15.7-17.5-11.4-24.5s21.1-9.2,29.1,0.4c5.6,6.7,11.4,22.5,9.3,23.2
					C840.6,387.9,828.8,391.1,816.6,387.7z"/>
			</g>
			<path class="st1" d="M817.2,384c-12-3.4-15.7-17.5-11.4-24.5s21.1-9.2,29.1,0.4c5.6,6.7,11.4,22.5,9.3,23.2
				C841.2,384.1,829.3,387.4,817.2,384z"/>
			<path class="st2" d="M820.1,368.9c-5-0.4-8-5.2-7.1-8s7.2-4.6,11.3-1.7c2.9,2,6.9,7.3,6.1,7.7
				C827.3,368.5,823.7,369.2,820.1,368.9z"/>
			<path class="st2" d="M879.7,224.4c-0.4-5.1,3.9-8.8,6.8-8.4s5.8,6.4,3.6,11c-1.5,3.2-6.1,8.1-6.6,7.4
				C881.4,231.4,880.1,228,879.7,224.4z"/>
			<g>
				<path class="st0" d="M824.7,176.1c-7.8-5.8-6.6-17.2-1.5-21.1s18-0.8,21.2,8.4c2.2,6.5,2,19.7,0.3,19.6
					C837.5,182.6,830.6,180.2,824.7,176.1z"/>
			</g>
			<path class="st1" d="M826.2,173.5c-7.8-5.8-6.6-17.2-1.5-21.1s18-0.8,21.2,8.5c2.2,6.5,2,19.7,0.3,19.6
				C843.7,180.4,834.1,179.4,826.2,173.5z"/>
			<path class="st2" d="M832.6,163.3c-3.5-1.7-4.4-6.1-2.9-7.9s6.5-1.4,8.8,1.9c1.5,2.3,3,7.3,2.3,7.4
				C837.9,165,835.1,164.5,832.6,163.3z"/>
			<g>
				<path class="st0" d="M478.7,450.4c-5.8-8.4-0.8-19.3,5.6-21.5c6.4-2.2,18.2,5.2,18.3,15.5c0.1,7.2-4.5,20.3-6.2,19.6
					C493.8,463,484.6,458.9,478.7,450.4z"/>
			</g>
			<path class="st1" d="M481,448.3c-5.9-8.4-0.8-19.3,5.6-21.5s18.2,5.2,18.3,15.5c0.1,7.2-4.5,20.2-6.2,19.6
				C496.1,461,486.9,456.8,481,448.3z"/>
			<path class="st2" d="M490.7,440.3c-3-2.9-2.3-7.5-0.3-8.8c2-1.3,7,0.8,8.1,4.8c0.8,2.8,0.5,8.2-0.2,8.1
				C495.5,443.8,492.9,442.3,490.7,440.3z"/>
		</g>
	</g>
</g>
</svg>
