<svg xmlns="http://www.w3.org/2000/svg" viewBox="0 0 301.49 242.01"><defs><style>.cls-1{fill:#3b352c;}</style></defs><title>gluten_free</title><g id="Layer_2" data-name="Layer 2"><g id="Layer_1-2" data-name="Layer 1"><path class="cls-1" d="M84.19,78.81v42.12a4,4,0,0,1-4,3.93,3.88,3.88,0,0,1-3.93-3.93V85.81l-2.85,1.64a3.56,3.56,0,0,1-2,.57,4,4,0,0,1-2.07-7.35l8.78-5.21c.07-.07.21-.07.28-.14s.22-.15.36-.22.29-.07.43-.07a.43.43,0,0,1,.29-.07,1.21,1.21,0,0,1,.5-.07h.78a.43.43,0,0,0,.29.07.75.75,0,0,1,.42.14.43.43,0,0,1,.29.07c.21.15.29.22.43.22a1,1,0,0,0,.28.21c.08.07.22.14.29.21s.21.22.29.29a.9.9,0,0,1,.21.29l.28.28.08.14c0,.08.07.15.07.22s.14.21.14.35.07.29.14.36a3.29,3.29,0,0,0,.07.36.58.58,0,0,0,.15.5Z"/><path class="cls-1" d="M89.68,99.87c.07-6.57,1.72-12.49,4.86-17.06,3-4.57,7.63-7.92,13.27-7.92S118,78.24,121,82.81a30.52,30.52,0,0,1,4.78,17.06A30.69,30.69,0,0,1,121,116.93c-3,4.5-7.71,7.93-13.21,7.93s-10.28-3.43-13.27-7.93C91.4,112.36,89.75,106.37,89.68,99.87Zm28.2,0a23.69,23.69,0,0,0-3.43-12.71c-2.07-3-4.42-4.42-6.64-4.35s-4.64,1.36-6.78,4.35a23.69,23.69,0,0,0-3.42,12.71A23.43,23.43,0,0,0,101,112.51c2.14,3.07,4.57,4.42,6.78,4.42s4.57-1.35,6.64-4.42A23.43,23.43,0,0,0,117.88,99.87Z"/><path class="cls-1" d="M132.78,99.87c.07-6.57,1.72-12.49,4.86-17.06s7.63-7.92,13.27-7.92,10.21,3.35,13.21,7.92a30.52,30.52,0,0,1,4.78,17.06,30.69,30.69,0,0,1-4.78,17.06c-3,4.5-7.71,7.93-13.21,7.93s-10.28-3.43-13.27-7.93S132.85,106.37,132.78,99.87Zm28.2,0a23.69,23.69,0,0,0-3.43-12.71c-2.07-3-4.42-4.42-6.64-4.35s-4.64,1.36-6.78,4.35a23.69,23.69,0,0,0-3.42,12.71,23.43,23.43,0,0,0,3.42,12.64c2.14,3.07,4.57,4.42,6.78,4.42s4.57-1.35,6.64-4.42A23.43,23.43,0,0,0,161,99.87Z"/><path class="cls-1" d="M183.19,87.24v-.15c0-7,4.78-12.78,11.85-12.78s11.7,5.79,11.7,12.64v.14c0,6.93-4.71,12.78-11.85,12.78C187.9,99.87,183.19,94.09,183.19,87.24Zm17.2,0v-.15c0-4-2.28-7.28-5.5-7.28s-5.35,3.29-5.35,7.14v.14c0,4.07,2.28,7.28,5.5,7.28S200.39,91.09,200.39,87.24Zm-9,33.33,32.76-44.76a2.74,2.74,0,0,1,2.43-1.28,2.8,2.8,0,0,1,2.85,2.78,3.2,3.2,0,0,1-.64,1.86L196,123.93a2.94,2.94,0,0,1-2.5,1.28,2.75,2.75,0,0,1-2.79-2.78A3.24,3.24,0,0,1,191.4,120.57Zm22-7.78v-.14c0-7,4.79-12.78,11.85-12.78s11.71,5.78,11.71,12.64v.14c0,6.92-4.78,12.78-11.85,12.78S213.38,119.65,213.38,112.79Zm17.21,0v-.14c0-4-2.29-7.28-5.5-7.28s-5.35,3.28-5.35,7.14v.14c0,4.07,2.28,7.28,5.49,7.28C228.59,119.93,230.59,116.65,230.59,112.79Z"/><path class="cls-1" d="M46.71,116.74a9.65,9.65,0,0,1-7.65,6c-.09.08-2.29-9.54.7-15a8.7,8.7,0,0,1,8.48-4.6C48.16,103.13,48.86,111.38,46.71,116.74Z"/><path class="cls-1" d="M50.85,132.74a9.64,9.64,0,0,1-6.4,7.33c-.09.08-4.06-9.06-2.12-15a8.67,8.67,0,0,1,7.48-6.09C49.75,119,52,127,50.85,132.74Z"/><path class="cls-1" d="M58,147.9a9.57,9.57,0,0,1-4.86,8.48c-.07.09-5.8-8.31-5-14.61a8.6,8.6,0,0,1,6.2-7.41C54.26,134.43,58,142,58,147.9Z"/><path class="cls-1" d="M28.55,119.69A8.29,8.29,0,0,0,37.92,123c-.11,0-1.4-9.48-4.66-14.93s-8.73-4.83-8.77-4.77S24.32,114.25,28.55,119.69Z"/><path class="cls-1" d="M33.54,139c5,4.57,9.84,1.46,9.83,1.53S40.2,131.36,36,126.58s-9.47-3.17-9.5-3.11S28.35,134.36,33.54,139Z"/><path class="cls-1" d="M42.16,157.28c5.88,3.64,10-.33,10-.26s-4.95-8.57-10-12.56-9.92-1.41-9.93-1.34S36.12,153.59,42.16,157.28Z"/><path class="cls-1" d="M47.56,83.63a9.64,9.64,0,0,1-9.3,2.78c-.12,0,1.33-9.72,6.14-13.82A8.66,8.66,0,0,1,54,71.36C53.88,71.39,51.5,79.42,47.56,83.63Z"/><path class="cls-1" d="M45.6,100A9.71,9.71,0,0,1,37,104.38c-.1.06-.46-9.77,3.5-14.63a8.65,8.65,0,0,1,9.19-2.93C49.56,86.86,48.7,95.11,45.6,100Z"/><path class="cls-1" d="M29.57,79.76a8.31,8.31,0,0,0,7.54,6.46c-.09-.07,2.13-9.34,1.1-15.67s-6.34-7.75-6.4-7.71S27.6,73.15,29.57,79.76Z"/><path class="cls-1" d="M27.2,99.45a8.34,8.34,0,0,0,8.6,5c-.1-.05.39-9.54-1.79-15.52s-7.67-6.4-7.72-6.35S24.07,93.33,27.2,99.45Z"/><path class="cls-1" d="M64.11,170.93s-5.77-4.66-7.57-6.15c-1.34-1-5.28-3.56-5.27-3.58a19.68,19.68,0,0,0,3.54-1.39A22.66,22.66,0,0,0,57.29,157a43.14,43.14,0,0,0,1.78,5.8A61.12,61.12,0,0,0,64.11,170.93Z"/><path class="cls-1" d="M39.78,64.16c-.41-.16-.49-.9-.17-1.65A102.22,102.22,0,0,1,52.35,40.35c.51-.67,1.2-1,1.55-.73s.2,1-.3,1.68A100.54,100.54,0,0,0,41.06,63.12C40.75,63.86,40.18,64.32,39.78,64.16Z"/><path class="cls-1" d="M42.42,68.38c-.41-.15-.52-.87-.25-1.59A98.9,98.9,0,0,1,62.51,34.46c.57-.6,1.29-.83,1.6-.53s.11,1-.45,1.61a97.09,97.09,0,0,0-20,31.82C43.37,68.07,42.83,68.53,42.42,68.38Z"/><path class="cls-1" d="M47.16,67.14c-.4-.17-.51-.86-.22-1.55A94.93,94.93,0,0,1,58.7,45.14c.47-.63,1.14-.91,1.48-.64s.24,1-.22,1.58A93.19,93.19,0,0,0,48.39,66.2C48.11,66.88,47.56,67.29,47.16,67.14Z"/><path class="cls-1" d="M254.78,116.74a9.65,9.65,0,0,0,7.65,6c.09.08,2.29-9.54-.7-15a8.7,8.7,0,0,0-8.47-4.6C253.33,103.13,252.63,111.38,254.78,116.74Z"/><path class="cls-1" d="M250.64,132.74a9.64,9.64,0,0,0,6.4,7.33c.09.08,4.06-9.06,2.12-15a8.67,8.67,0,0,0-7.48-6.09C251.75,119,249.54,127,250.64,132.74Z"/><path class="cls-1" d="M243.49,147.9a9.57,9.57,0,0,0,4.86,8.48c.07.09,5.8-8.31,5-14.61a8.6,8.6,0,0,0-6.2-7.41C247.23,134.43,243.54,142,243.49,147.9Z"/><path class="cls-1" d="M272.94,119.69a8.29,8.29,0,0,1-9.37,3.26c.11,0,1.4-9.48,4.66-14.93s8.73-4.83,8.77-4.77S277.17,114.25,272.94,119.69Z"/><path class="cls-1" d="M268,139c-5,4.57-9.84,1.46-9.83,1.53s3.17-9.16,7.37-13.94,9.47-3.17,9.5-3.11S273.14,134.36,268,139Z"/><path class="cls-1" d="M259.33,157.28c-5.88,3.64-10-.33-10-.26s4.95-8.57,10-12.56,9.92-1.41,9.93-1.34S265.37,153.59,259.33,157.28Z"/><path class="cls-1" d="M253.93,83.63a9.64,9.64,0,0,0,9.3,2.78c.12,0-1.33-9.72-6.14-13.82a8.66,8.66,0,0,0-9.58-1.23C247.61,71.39,250,79.42,253.93,83.63Z"/><path class="cls-1" d="M255.89,100a9.71,9.71,0,0,0,8.64,4.42c.1.06.46-9.77-3.5-14.63a8.65,8.65,0,0,0-9.19-2.93C251.93,86.86,252.79,95.11,255.89,100Z"/><path class="cls-1" d="M271.92,79.76a8.31,8.31,0,0,1-7.54,6.46c.09-.07-2.13-9.34-1.1-15.67s6.34-7.75,6.4-7.71S273.89,73.15,271.92,79.76Z"/><path class="cls-1" d="M274.29,99.45a8.34,8.34,0,0,1-8.6,5c.1-.05-.39-9.54,1.79-15.52s7.67-6.4,7.72-6.35S277.43,93.33,274.29,99.45Z"/><path class="cls-1" d="M237.38,170.93c.05,0,5.77-4.66,7.57-6.15,1.34-1,5.28-3.56,5.27-3.58a20,20,0,0,1-3.54-1.39A22.66,22.66,0,0,1,244.2,157a43.14,43.14,0,0,1-1.78,5.8A61.12,61.12,0,0,1,237.38,170.93Z"/><path class="cls-1" d="M261.71,64.16c.41-.16.49-.9.17-1.65a102.22,102.22,0,0,0-12.74-22.16c-.51-.67-1.2-1-1.55-.73s-.2,1,.3,1.68a100.54,100.54,0,0,1,12.54,21.82C260.74,63.86,261.31,64.32,261.71,64.16Z"/><path class="cls-1" d="M259.07,68.38c.41-.15.52-.87.25-1.59A98.9,98.9,0,0,0,239,34.46c-.57-.6-1.29-.83-1.6-.53s-.11,1,.45,1.61a97.09,97.09,0,0,1,20,31.82C258.12,68.07,258.66,68.53,259.07,68.38Z"/><path class="cls-1" d="M254.33,67.14c.4-.17.51-.86.22-1.55a94.93,94.93,0,0,0-11.76-20.45c-.47-.63-1.14-.91-1.48-.64s-.24,1,.22,1.58A93.19,93.19,0,0,1,253.1,66.2C253.38,66.88,253.93,67.29,254.33,67.14Z"/><path class="cls-1" d="M82.89,29.43c-2.78-4.09-.66-10.53,4.84-13.6A12.22,12.22,0,0,1,95,14.25a1.31,1.31,0,0,1,1.15,1.67,2.06,2.06,0,0,1-2.06,1.33,8.13,8.13,0,0,0-5,1.09,8.44,8.44,0,0,0-3.86,4.35,5.54,5.54,0,0,0,.46,4.88,5.88,5.88,0,0,0,4.12,2.58,8.52,8.52,0,0,0,5.29-1,8,8,0,0,0,3.32-3.33,1.82,1.82,0,0,1,2.13-.74,1.39,1.39,0,0,1,.63,1.93,11.92,11.92,0,0,1-4.69,4.65C91.77,34.3,85.69,33.54,82.89,29.43Z"/><path class="cls-1" d="M106.51,25.23l-5.8-13.65a1.52,1.52,0,0,1,1-1.93h0l.06,0c3.72-1.52,5.6-2.2,9.4-3.43a1.56,1.56,0,0,1,2,.82,1.59,1.59,0,0,1-1.16,1.84c-3.12,1-4.66,1.55-7.72,2.76l1.69,4.28c2.53-1,3.81-1.46,6.38-2.32a1.53,1.53,0,0,1,1.94.83,1.5,1.5,0,0,1-1.06,1.82c-2.51.84-3.76,1.29-6.23,2.26.67,1.73,1,2.59,1.69,4.31,2.77-1.09,4.17-1.59,7-2.5a1.4,1.4,0,1,1,.86,2.66c-3.29,1.06-4.92,1.65-8.13,3,0,0-.06,0-.06,0v0A1.45,1.45,0,0,1,106.51,25.23Z"/><path class="cls-1" d="M134.2,16.72a1.38,1.38,0,0,1-.66,1.88,2.61,2.61,0,0,1-.57.16h0a2.19,2.19,0,0,1-1.07-.1,2.81,2.81,0,0,1-1-.72,7.15,7.15,0,0,1-1.1-2.87,2,2,0,0,0-.52-1,2.72,2.72,0,0,0-1-.57,5.61,5.61,0,0,0-1.65-.28c-1.3.27-2,.41-3.24.72.5,2.12.76,3.19,1.26,5.31a1.47,1.47,0,0,1-1.12,1.7,1.44,1.44,0,0,1-1.77-1L118,5.65a1.51,1.51,0,0,1,1.28-1.76h0c2.12-.53,3.18-.77,5.32-1.22,3.56-.73,6.81,1.23,7.26,4.19a5.21,5.21,0,0,1-1.55,4.43,3.78,3.78,0,0,1,1.13.75,4.31,4.31,0,0,1,1.34,2.54,7.21,7.21,0,0,0,.33,1.45A1.4,1.4,0,0,1,134.2,16.72Zm-5.52-9.34a2.82,2.82,0,0,0-3.5-2c-1.44.3-2.16.46-3.6.8l1.2,5c1.37-.33,2.06-.48,3.45-.77A2.85,2.85,0,0,0,128.68,7.38Z"/><path class="cls-1" d="M149.28,2.79c-1.89,0-2.84,0-4.74.15.27,5.36.4,8,.67,13.41a1.47,1.47,0,0,1-2.93.18c-.41-5.36-.61-8-1-13.39-1.88.14-2.82.23-4.7.44a1.56,1.56,0,0,1-1.81-1.2,1.53,1.53,0,0,1,1.5-1.57,106.47,106.47,0,0,1,13-.81,1.53,1.53,0,0,1,1.67,1.37A1.57,1.57,0,0,1,149.28,2.79Z"/><path class="cls-1" d="M156.11,1.48a1.51,1.51,0,0,1,1.73-1.3,1.57,1.57,0,0,1,1.61,1.49l-1,14.8a1.47,1.47,0,0,1-1.57,1.29,1.42,1.42,0,0,1-1.39-1.46C155.74,10.38,155.86,7.41,156.11,1.48Z"/><path class="cls-1" d="M163.41,16.91c.66-5.9,1-8.84,1.66-14.74A1.53,1.53,0,0,1,166.89,1H167c3.93.5,5.88.82,9.77,1.62a1.57,1.57,0,0,1,1.35,1.7,1.58,1.58,0,0,1-1.91,1c-3.18-.65-4.78-.92-8-1.37-.25,1.82-.38,2.74-.63,4.56,2.66.37,4,.59,6.62,1.1a1.53,1.53,0,0,1,1.28,1.67,1.51,1.51,0,0,1-1.81,1.07c-2.58-.5-3.88-.72-6.48-1.08-.33,2.39-.49,3.59-.83,6a1.49,1.49,0,0,1-2.94-.37Z"/><path class="cls-1" d="M183.26,5.55a1.53,1.53,0,0,1,2-.9,1.57,1.57,0,0,1,1.27,1.8c-1.65,5.7-2.48,8.55-4.14,14.25a1.46,1.46,0,0,1-1.81.92,1.41,1.41,0,0,1-1.06-1.72C181,14.16,181.76,11.29,183.26,5.55Z"/><path class="cls-1" d="M187.18,22.21c1.9-5.62,2.86-8.43,4.76-14A1.53,1.53,0,0,1,194,7.41h0l.06,0c3.77,1.34,5.64,2.08,9.32,3.72a1.57,1.57,0,0,1,1,2,1.6,1.6,0,0,1-2.11.58c-3-1.34-4.54-2-7.62-3.1-.63,1.73-1,2.59-1.59,4.32,2.55.94,3.81,1.45,6.32,2.54a1.54,1.54,0,0,1,.91,1.91,1.53,1.53,0,0,1-2,.65c-2.45-1.07-3.69-1.56-6.18-2.48l-1.6,4.34c2.78,1,4.16,1.59,6.89,2.8a1.4,1.4,0,1,1-1.13,2.55c-3.19-1.41-4.8-2.06-8.06-3.22-.05,0,0,0,0,0l0,0A1.43,1.43,0,0,1,187.18,22.21Z"/><path class="cls-1" d="M202,28.45l6.72-13.23a1.54,1.54,0,0,1,2.15-.44c1.31.69,2,1,3.26,1.77,5.29,3,7.17,9.07,4.45,13.07s-8.5,4.84-13.07,2.27c-1.12-.62-1.68-.93-2.81-1.52A1.46,1.46,0,0,1,202,28.45Zm3.37.18c.6.33.91.49,1.51.83,3.22,1.78,7.15,1.16,9-1.65S216.3,21,212.76,19l-1.67-.92Z"/><path class="cls-1" d="M65.75,60.2S76.37,59.47,92.31,59c4-.14,8.3-.28,12.87-.37s9.37-.24,14.36-.3,10.12-.17,15.35-.18L150.75,58l15.85.08c5.23,0,10.37.12,15.35.18,10,.15,19.26.38,27.23.66,15.94.52,26.56,1.25,26.56,1.25s-10.62.72-26.56,1.24c-8,.28-17.26.51-27.23.66-5,.06-10.12.18-15.35.18l-15.85.08-15.86-.08c-5.23,0-10.37-.13-15.35-.18s-9.8-.19-14.36-.3-8.89-.23-12.87-.37C76.37,60.92,65.75,60.2,65.75,60.2Z"/><path class="cls-1" d="M65.75,140.07s10.62-.73,26.56-1.24c4-.13,8.3-.28,12.87-.37s9.37-.24,14.36-.29,10.12-.18,15.35-.19l15.86-.07,15.85.07c5.23,0,10.37.13,15.35.18,10,.15,19.26.39,27.23.67,15.94.51,26.56,1.24,26.56,1.24s-10.62.73-26.56,1.24c-8,.28-17.26.51-27.23.66-5,.06-10.12.19-15.35.19l-15.85.07-15.86-.08c-5.23,0-10.37-.13-15.35-.18s-9.8-.19-14.36-.29-8.89-.24-12.87-.38C76.37,140.79,65.75,140.07,65.75,140.07Z"/><path class="cls-1" d="M267.39,198.49a232.83,232.83,0,0,0-233.07-1.67c-3.36,1.9-4.81,5.54-3.3,8L46.74,230.6c1.51,2.45,4.92,3.08,7.67,1.52A192.16,192.16,0,0,1,246.8,233.5c2.72,1.6,6.15,1,7.69-1.41q8.06-12.78,16.09-25.56C272.13,204.1,270.73,200.45,267.39,198.49Zm-193,11.07a10.67,10.67,0,0,1-5,4.8,10.39,10.39,0,1,1-8.75-18.84,10.73,10.73,0,0,1,6.91-.73,1.65,1.65,0,1,1-.74,3.21,7.56,7.56,0,0,0-4.79.5,7.19,7.19,0,0,0-3.82,4.1,6.84,6.84,0,0,0,4.2,9.06,7.21,7.21,0,0,0,5.6-.28,7.89,7.89,0,0,0,3.12-2.66l-1.66-3.58-3.74,1.73a1.66,1.66,0,0,1-2.19-.8,1.61,1.61,0,0,1,.82-2.15l5.15-2.4h0a1.62,1.62,0,0,1,2.2.76L74.47,208a2.4,2.4,0,0,1,.12.48c0,.07,0,.09,0,.16v0A1.38,1.38,0,0,1,74.41,209.56ZM90.7,206l-8.81,3.13,0,0h0a1.59,1.59,0,0,1-2-1l-5.68-16a1.58,1.58,0,0,1,1-2,1.61,1.61,0,0,1,2,1l5.15,14.52L89.63,203a1.6,1.6,0,0,1,1.07,3Zm12.06-3.34a8.33,8.33,0,0,1-10.1-6.09l-2.46-10a1.56,1.56,0,0,1,1.15-1.92,1.6,1.6,0,0,1,2,1.15l2.47,10a5.13,5.13,0,0,0,10-2.46l-2.47-10a1.6,1.6,0,0,1,3.11-.77l2.46,10A8.32,8.32,0,0,1,102.76,202.67ZM126,181.17l-4.54.64,2.15,15.25a1.55,1.55,0,0,1-1.35,1.79,1.58,1.58,0,0,1-1.79-1.35l-2.15-15.25-4.51.63a1.6,1.6,0,0,1-1.8-1.37,1.57,1.57,0,0,1,1.35-1.8l12.2-1.72a1.59,1.59,0,0,1,1.79,1.35A1.64,1.64,0,0,1,126,181.17Zm19.26,15.73-9.33.46c-.06,0-.06,0-.06,0l0,0a1.58,1.58,0,0,1-1.66-1.51l-.84-17a1.56,1.56,0,0,1,1.5-1.66H135l9.33-.47a1.6,1.6,0,0,1,.16,3.2l-7.81.39.27,5.27,6.71-.33a1.6,1.6,0,0,1,.16,3.2l-6.71.33.26,5.3,7.8-.39a1.6,1.6,0,0,1,.16,3.2Zm21-1a1.61,1.61,0,0,1-1.67,1.51,1.56,1.56,0,0,1-1.15-.64,1.1,1.1,0,0,1-.14-.18l-8.58-13.25-.59,12a1.61,1.61,0,0,1-1.64,1.51,1.58,1.58,0,0,1-1.5-1.67l.83-16.73v0a1.53,1.53,0,0,1,.7-1.29,1.58,1.58,0,0,1,2.17.45l8.67,13.34.59-11.87a1.57,1.57,0,0,1,1.63-1.48,1.6,1.6,0,0,1,1.51,1.64Zm30.64-12.31a1.62,1.62,0,0,1-1.86,1.28l-7.67-1.51-1,5.18,6.59,1.3a1.6,1.6,0,0,1-.62,3.14l-6.59-1.3-1.34,6.79a1.61,1.61,0,0,1-1.89,1.25,1.58,1.58,0,0,1-1.25-1.87l3.29-16.69a1.57,1.57,0,0,1,1.86-1.25h.08l9.17,1.81A1.61,1.61,0,0,1,196.93,183.63Zm16.63,9.42a6.14,6.14,0,0,1-3.49,3.91,4.76,4.76,0,0,1,.67,1.31,5.47,5.47,0,0,1,0,3.26,7,7,0,0,0-.37,1.66,1.58,1.58,0,0,1-.84,2.88,2.36,2.36,0,0,1-.64-.09h0a2.07,2.07,0,0,1-1-.62,2.85,2.85,0,0,1-.61-1.23,7.85,7.85,0,0,1,.39-3.49,2.46,2.46,0,0,0,0-1.29,2.74,2.74,0,0,0-.6-1.05,5.54,5.54,0,0,0-1.35-1.11l-3.27-1-1.76,6a1.6,1.6,0,0,1-3.07-.9L202.45,185a1.57,1.57,0,0,1,2-1.08h0l4.93,1.44A6.16,6.16,0,0,1,213.56,193.05Zm15.28,9.9a1.6,1.6,0,0,1-2.06.92l-6.26-2.46-1.94,4.94,7.28,2.86a1.6,1.6,0,0,1-1.17,3l-8.7-3.41c-.06,0-.05-.05-.05-.05h0a1.57,1.57,0,0,1-.9-2.05l6.22-15.84a1.56,1.56,0,0,1,2.06-.9h0l.06,0,8.69,3.42a1.59,1.59,0,0,1,.9,2,1.62,1.62,0,0,1-2.06.93l-7.28-2.86-1.93,4.91,6.26,2.46A1.62,1.62,0,0,1,228.84,203Zm20.59.47a1.63,1.63,0,0,1-2.14.74l-7-3.47-2.35,4.72,6,3a1.62,1.62,0,0,1,.71,2.13,1.6,1.6,0,0,1-2.14.74l-6-3L234.15,213l7,3.48a1.6,1.6,0,0,1-1.43,2.87l-8.37-4.16c-.05,0,0-.05,0-.05h0a1.57,1.57,0,0,1-.71-2.12l7.57-15.25a1.55,1.55,0,0,1,2.12-.71h0l.05,0,8.37,4.16A1.59,1.59,0,0,1,249.43,203.42Z"/><path class="cls-1" d="M208.47,188.44l-3.4-1-1.67,5.7,3.41,1a3,3,0,0,0,1.66-5.71Z"/><path class="cls-1" d="M298,208.34a241.54,241.54,0,0,0-39.37-25c-3.54-1.8-7.44-1-8.65,1.57l-.53,1.14q9.82,4.63,19.31,10.2c5.05,3,7.12,8.54,4.75,12.12l-14.37,22.09q7.11,4.64,13.91,9.92c2.66,2.07,6.66,2.34,8.12-.15,2-3.38,2.95-12,5.33-15.11s10.86-5.67,13.95-8.13C302.66,215.16,301.19,210.85,298,208.34Z"/><path class="cls-1" d="M33,194.56q9.54-5.44,19.46-9.92c-.17-.38-.35-.76-.52-1.15-1.17-2.62-5-3.44-8.63-1.69A241.69,241.69,0,0,0,3.63,206.22c-3.28,2.47-4.81,6.76-2.58,8.62,3.06,2.5,11.5,5.16,13.84,8.33S18,234.94,20,238.35c1.42,2.51,5.43,2.3,8.12.27q6.87-5.19,14.05-9.72-7-11.15-14-22.29C25.8,203,28,197.46,33,194.56Z"/></g></g></svg>